<svg xmlns="http://www.w3.org/2000/svg" viewBox="0 0 512 512" role="img" aria-label="情侣美食记忆地图">
  <rect width="512" height="512" rx="112" fill="#1769e0"/>
  <path d="M112 358c54-92 92-138 144-138s90 46 144 138" fill="none" stroke="#dbeafe" stroke-width="28" stroke-linecap="round"/>
  <path d="M256 105c-53 0-96 41-96 92 0 76 96 164 96 164s96-88 96-164c0-51-43-92-96-92z" fill="#fff"/>
  <circle cx="256" cy="198" r="42" fill="#f59e0b"/>
  <path d="M236 198c0-11 9-20 20-20s20 9 20 20-9 20-20 20-20-9-20-20z" fill="#fff7ed"/>
  <path d="M174 390h164" stroke="#fff" stroke-width="24" stroke-linecap="round"/>
  <path d="M188 390c0-28 22-50 50-50h36c28 0 50 22 50 50" fill="none" stroke="#fff" stroke-width="24" stroke-linecap="round"/>
</svg>
